<svg xmlns="http://www.w3.org/2000/svg" class="svg-logo" width="2400" height="2400" viewBox="0 0 630 430" style="height: auto;"><rect width="630" height="630" y="-100" rx="0" ry="0" fill="#000000" fill-opacity="1"></rect><g data-element="wrapper" transform="translate(-236.25004005432456 -148.12500000000216) scale(1.7500000000000104)"><g ><path d="M222.50 223.49L222.25 223.49Q221.35 223.49 221.03 222.40L221.03 222.40Q220.97 222.21 220.97 221.82L220.97 221.82Q220.97 221.06 221.67 220.80L221.67 220.80Q224.87 219.46 226.41 216.96Q227.94 214.46 228.39 210.78Q228.84 207.10 228.84 200.83L228.84 200.83L228.84 178.30Q228.77 176.70 228.55 175.71Q228.33 174.72 227.43 174.05Q226.53 173.38 224.68 173.38L224.68 173.38L224.29 173.38Q223.65 173.38 223.37 173.15Q223.08 172.93 223.01 172.03L223.01 172.03Q223.01 171.46 223.33 171.04Q223.65 170.62 224.17 170.62L224.17 170.62Q228.26 170.82 231.78 170.82L231.78 170.82Q235.69 170.82 239.78 170.62L239.78 170.62Q240.36 170.62 240.65 171.04Q240.93 171.46 240.93 172.03L240.93 172.03Q240.87 172.99 240.52 173.18Q240.17 173.38 239.27 173.38L239.27 173.38Q237.41 173.38 236.52 174.05Q235.62 174.72 235.40 175.71Q235.17 176.70 235.11 178.30L235.11 178.30L235.11 203.01Q235.11 211.26 232.20 216.54Q229.29 221.82 222.50 223.49L222.50 223.49ZM251.75 211.97Q247.91 211.97 245.54 209.79Q243.17 207.62 243.17 204.35L243.17 204.35Q243.17 200.32 245.86 198.30Q248.55 196.29 252.26 195.68Q255.97 195.07 261.86 194.75L261.86 194.75L261.86 189.70Q261.86 186.56 260.29 184.93Q258.73 183.30 255.27 183.30L255.27 183.30Q253.29 183.30 251.81 184.51Q250.34 185.73 250.34 187.78L250.34 187.78Q250.34 188.80 250.82 189.47Q251.30 190.14 251.85 190.59Q252.39 191.04 252.39 191.10L252.39 191.10Q252.39 191.49 251.59 192.10Q250.79 192.70 249.64 192.70L249.64 192.70Q247.72 192.70 246.60 191.30Q245.48 189.89 245.48 187.97L245.48 187.97Q245.48 184.64 248.45 183.04Q251.43 181.44 255.65 181.44L255.65 181.44Q260.90 181.44 264.20 183.42Q267.49 185.41 267.49 190.78L267.49 190.78L267.49 205.70Q267.56 207.04 268.33 208.26Q269.09 209.47 270.82 209.47L270.82 209.47Q271.33 209.47 271.56 209.66Q271.78 209.86 271.78 210.50L271.78 210.50Q271.78 211.26 270.60 211.62Q269.41 211.97 268.26 211.97L268.26 211.97Q265.83 211.97 263.97 210.56Q262.12 209.15 261.86 206.78L261.86 206.78Q260.52 209.28 257.73 210.62Q254.95 211.97 251.75 211.97L251.75 211.97ZM253.80 208.51Q255.97 208.51 257.83 207.42Q259.69 206.34 260.77 204.45Q261.86 202.56 261.86 200.26L261.86 200.26L261.86 196.61Q255.14 197.12 252.39 198.78Q249.64 200.45 249.64 204.16L249.64 204.16Q249.64 208.51 253.80 208.51L253.80 208.51ZM275.88 211.39Q275.43 211.39 275.14 211.01Q274.85 210.62 274.85 210.11L274.85 210.11Q274.92 209.28 275.24 209.12Q275.56 208.96 276.39 208.96L276.39 208.96Q278.05 208.96 278.76 208.38Q279.46 207.81 279.56 207.04Q279.65 206.27 279.65 204.61L279.65 204.61L279.65 189.95Q279.65 188.29 279.56 187.52Q279.46 186.75 278.76 186.18Q278.05 185.60 276.39 185.60L276.39 185.60Q275.62 185.60 275.24 185.38Q274.85 185.15 274.85 184.32L274.85 184.32Q274.85 183.94 275.11 183.58Q275.37 183.23 275.88 183.17L275.88 183.17Q280.04 182.53 282.73 181.50L282.73 181.50Q283.81 181.18 284.20 181.12L284.20 181.12L284.39 181.12Q285.41 181.12 285.41 182.34L285.41 182.34L285.41 186.37L285.61 186.37Q287.46 184.64 288.61 183.71Q289.77 182.78 291.59 182.11Q293.41 181.44 295.91 181.44L295.91 181.44Q300.26 181.44 302.82 184.06Q305.38 186.69 305.38 190.98L305.38 190.98L305.38 204.61Q305.38 206.27 305.51 207.04Q305.64 207.81 306.34 208.38Q307.05 208.96 308.71 208.96L308.71 208.96L309.09 208.96Q309.61 208.96 309.86 209.15Q310.12 209.34 310.18 210.11L310.18 210.11Q310.18 210.62 309.89 211.01Q309.61 211.39 309.16 211.39L309.16 211.39Q305.45 211.20 302.44 211.20L302.44 211.20Q299.56 211.20 295.78 211.39L295.78 211.39Q295.33 211.39 295.05 211.01Q294.76 210.62 294.76 210.11L294.76 210.11Q294.82 209.28 295.11 209.12Q295.40 208.96 296.23 208.96L296.23 208.96Q297.89 208.96 298.60 208.38Q299.30 207.81 299.43 207.04Q299.56 206.27 299.56 204.61L299.56 204.61L299.56 191.04Q299.56 188.10 297.70 186.53Q295.85 184.96 293.41 184.96L293.41 184.96Q290.47 184.96 288.36 186.40Q286.25 187.84 285.48 189.38L285.48 189.38L285.48 204.61Q285.48 206.27 285.61 207.04Q285.73 207.81 286.44 208.38Q287.14 208.96 288.81 208.96L288.81 208.96L289.19 208.96Q289.70 208.96 289.96 209.15Q290.21 209.34 290.28 210.11L290.28 210.11Q290.28 210.62 290.02 211.01Q289.77 211.39 289.25 211.39L289.25 211.39Q285.54 211.20 282.53 211.20L282.53 211.20Q279.65 211.20 275.88 211.39L275.88 211.39ZM326.89 211.97Q323.30 211.97 320.23 210.02Q317.16 208.06 315.30 204.58Q313.45 201.09 313.45 196.67L313.45 196.67Q313.45 192.70 315.37 189.18Q317.29 185.66 320.68 183.55Q324.07 181.44 328.23 181.44L328.23 181.44Q330.21 181.44 332.20 181.92Q334.18 182.40 335.65 183.23L335.65 183.23L335.85 183.23L335.85 173.44Q335.85 171.78 335.75 171.01Q335.65 170.24 334.95 169.66Q334.25 169.09 332.58 169.09L332.58 169.09Q331.81 169.09 331.43 168.86Q331.05 168.64 331.05 167.81L331.05 167.81Q331.05 167.42 331.30 167.07Q331.56 166.72 332.07 166.66L332.07 166.66Q336.10 166.08 338.98 164.99L338.98 164.99Q339.88 164.67 340.45 164.61L340.45 164.61L340.65 164.61Q341.67 164.61 341.67 165.82L341.67 165.82L341.67 205.31Q341.67 209.09 346.66 209.09L346.66 209.09Q347.75 209.09 347.75 210.11L347.75 210.11Q347.75 211.01 346.66 211.20L346.66 211.20L336.49 211.90Q336.04 211.90 335.97 211.62Q335.91 211.33 335.91 210.62L335.91 210.62L335.91 208.06L335.72 208.06Q334.05 209.79 331.65 210.88Q329.25 211.97 326.89 211.97L326.89 211.97ZM329.06 208.77Q331.30 208.77 332.87 207.90Q334.44 207.04 335.85 205.57L335.85 205.57L335.85 188.67Q335.27 186.82 333.45 185.28Q331.62 183.74 328.87 183.74L328.87 183.74Q326.37 183.74 324.36 185.31Q322.34 186.88 321.19 189.89Q320.04 192.90 320.04 196.99L320.04 196.99Q320.04 201.92 322.37 205.34Q324.71 208.77 329.06 208.77L329.06 208.77ZM351.08 211.39Q350.63 211.39 350.34 211.01Q350.05 210.62 350.05 210.11L350.05 210.11Q350.12 209.28 350.44 209.12Q350.76 208.96 351.59 208.96L351.59 208.96Q353.25 208.96 353.96 208.38Q354.66 207.81 354.76 207.04Q354.85 206.27 354.85 204.61L354.85 204.61L354.85 189.95Q354.85 188.29 354.76 187.52Q354.66 186.75 353.96 186.18Q353.25 185.60 351.59 185.60L351.59 185.60Q350.82 185.60 350.44 185.38Q350.05 185.15 350.05 184.32L350.05 184.32Q350.05 183.94 350.31 183.58Q350.57 183.23 351.08 183.17L351.08 183.17Q355.24 182.53 357.93 181.50L357.93 181.50Q359.01 181.18 359.40 181.12L359.40 181.12L359.59 181.12Q360.61 181.12 360.61 182.34L360.61 182.34L360.61 186.30L360.81 186.30Q363.05 184.06 365.35 182.75Q367.65 181.44 369.51 181.44L369.51 181.44Q371.62 181.44 372.87 183.01Q374.12 184.58 374.12 186.62L374.12 186.62Q374.12 188.42 373.03 189.82Q371.94 191.23 370.02 191.23L370.02 191.23Q369.13 191.23 368.45 190.85Q367.78 190.46 367.72 190.21L367.72 190.21Q367.78 190.08 368.36 189.41Q368.93 188.74 368.93 187.84L368.93 187.84Q368.93 186.69 368.33 185.98Q367.72 185.28 366.69 185.28L366.69 185.28Q365.61 185.28 363.94 186.34Q362.28 187.39 360.68 188.99L360.68 188.99L360.68 204.61Q360.68 206.27 360.81 207.04Q360.93 207.81 361.64 208.38Q362.34 208.96 364.01 208.96L364.01 208.96L364.39 208.96Q364.90 208.96 365.16 209.15Q365.41 209.34 365.48 210.11L365.48 210.11Q365.48 210.62 365.22 211.01Q364.97 211.39 364.45 211.39L364.45 211.39Q360.74 211.20 357.73 211.20L357.73 211.20Q354.85 211.20 351.08 211.39L351.08 211.39ZM392.42 211.97Q388.07 211.97 384.68 209.89Q381.29 207.81 379.40 204.38Q377.51 200.96 377.51 197.12L377.51 197.12Q377.51 192.32 379.75 188.77Q381.99 185.22 385.45 183.33Q388.90 181.44 392.42 181.44L392.42 181.44Q396.77 181.44 400.17 183.52Q403.56 185.60 405.45 189.02Q407.33 192.45 407.33 196.29L407.33 196.29Q407.33 201.09 405.06 204.64Q402.79 208.19 399.33 210.08Q395.88 211.97 392.42 211.97L392.42 211.97ZM392.42 209.60Q396.77 209.60 398.79 205.89Q400.81 202.18 400.81 196.29L400.81 196.29Q400.81 190.78 398.73 187.30Q396.65 183.81 392.42 183.81L392.42 183.81Q388.01 183.81 386.02 187.46Q384.04 191.10 384.04 196.99L384.04 196.99Q384.04 202.50 386.09 206.05Q388.13 209.60 392.42 209.60L392.42 209.60Z" data-element="company-name" data-text-path="" data-text="Jandro" data-font-family="Alice" fill="#ffffff" fill-opacity="1"></path><path d="M200.62 233.59L198.69 233.59L198.69 232.44L205.05 232.44L210.30 249.69L215.25 232.44L221.79 232.44L221.79 233.59L219.83 233.59L220.86 251.45L222.59 251.45L222.59 252.60L214.87 252.60L214.87 251.45L216.52 251.45L215.62 237.19L211.19 252.60L206.84 252.60L202.14 237.22L201.34 251.45L203.01 251.45L203.01 252.60L197.88 252.60L197.88 251.45L199.61 251.45L200.62 233.59ZM231.35 239.52L231.35 239.52L231.35 249.40Q231.35 250.30 231.90 250.79Q232.44 251.28 233.42 251.28Q234.40 251.28 235.32 250.47Q236.24 249.66 236.24 248.37L236.24 248.37L236.24 238.20L240.56 238.20L240.56 249.40Q240.56 250.18 240.94 250.63Q241.31 251.07 242.09 251.07Q242.87 251.07 243.88 250.24L243.88 250.24L244.39 250.93Q242.09 253.03 239.70 253.03Q237.31 253.03 236.53 250.90L236.53 250.90Q235.41 252.08 234.21 252.56Q233.02 253.03 231.16 253.03Q229.30 253.03 228.17 251.89Q227.03 250.76 227.03 248.80L227.03 248.80L227.03 239.15Q225.44 239.55 224.61 240.56L224.61 240.56L223.83 239.67Q224.67 238.80 225.95 238.29Q227.23 237.77 228.48 237.77Q229.74 237.77 230.54 238.27Q231.35 238.78 231.35 239.52ZM248.86 240.56L248.86 240.56Q248.17 239.50 248.17 238.66Q248.17 237.83 248.82 237.18Q249.46 236.53 250.38 236.53Q251.31 236.53 251.95 237.18Q252.60 237.83 252.60 238.72Q252.60 239.61 251.71 240.62L251.71 240.62Q254.07 242.35 255.34 244.00Q256.61 245.66 256.61 247.83Q256.61 250.01 254.96 251.52Q253.32 253.03 250.30 253.03L250.30 253.03Q248.92 253.03 247.52 252.43Q246.12 251.82 245.40 250.93L245.40 250.93L246.06 250.24Q247.33 251.25 248.80 251.25Q250.27 251.25 251.21 250.45Q252.14 249.66 252.14 247.99L252.14 247.99Q252.14 245.34 250.18 242.46L250.18 242.46L245.83 247.91L245.11 247.27Q247.30 243.73 248.86 240.56ZM261.92 234.93Q261.24 234.25 261.24 233.30Q261.24 232.35 261.92 231.68Q262.60 231.00 263.55 231.00Q264.50 231.00 265.17 231.68Q265.85 232.35 265.85 233.30Q265.85 234.25 265.17 234.93Q264.50 235.61 263.55 235.61Q262.60 235.61 261.92 234.93ZM263.00 237.77L263.00 237.77Q265.71 237.77 265.71 240.10L265.71 240.10L265.71 249.40Q265.71 250.18 266.08 250.63Q266.46 251.07 267.23 251.07Q268.01 251.07 269.02 250.24L269.02 250.24L269.54 250.93Q267.23 253.03 264.93 253.03L264.93 253.03Q261.39 253.03 261.39 248.80L261.39 248.80L261.39 239.15Q259.80 239.55 258.97 240.56L258.97 240.56L258.19 239.67Q259.02 238.80 260.31 238.29Q261.59 237.77 263.00 237.77ZM278.49 253.03L278.49 253.03Q275.07 253.03 272.95 250.83Q270.83 248.63 270.83 245.40Q270.83 242.17 272.95 239.97Q275.07 237.77 278.46 237.77L278.46 237.77Q280.37 237.77 282.18 238.86Q283.99 239.96 283.99 241.83L283.99 241.83Q283.99 242.78 283.32 243.46Q282.64 244.13 281.69 244.13Q280.74 244.13 280.06 243.46Q279.39 242.78 279.39 241.92Q279.39 241.05 279.85 240.45Q280.31 239.84 281.06 239.61L281.06 239.61Q280.25 239.27 279.21 239.27L279.21 239.27Q277.28 239.27 276.29 240.98Q275.30 242.69 275.30 245.33Q275.30 247.96 276.29 249.60Q277.28 251.25 279.21 251.25L279.21 251.25Q281.81 251.25 283.62 249.09L283.62 249.09L284.43 249.60Q283.48 251.16 281.94 252.10Q280.39 253.03 278.49 253.03ZM298.02 238.20L302.34 238.20L302.34 249.40Q302.34 250.18 302.71 250.63Q303.09 251.07 303.87 251.07Q304.64 251.07 305.65 250.24L305.65 250.24L306.17 250.93Q303.87 253.03 301.56 253.03L301.56 253.03Q298.83 253.03 298.19 250.47L298.19 250.47Q296.70 253.03 293.79 253.03L293.79 253.03Q290.47 253.03 288.75 250.89Q287.02 248.74 287.02 245.41Q287.02 242.09 288.88 239.93Q290.73 237.77 294.07 237.77L294.07 237.77Q296.64 237.77 298.02 239.81L298.02 239.81L298.02 238.20ZM292.29 241.02Q291.48 242.64 291.48 245.40Q291.48 248.16 292.29 249.78Q293.10 251.39 294.75 251.39Q296.41 251.39 297.29 249.76Q298.16 248.14 298.16 245.40Q298.16 242.66 297.29 241.04Q296.41 239.41 294.75 239.41Q293.10 239.41 292.29 241.02ZM329.93 233.59L328.20 233.59L328.20 232.44L333.67 232.44L333.67 233.59L331.95 233.59L331.95 245.66Q331.95 247.73 331.33 249.23Q330.71 250.73 329.61 251.53L329.61 251.53Q327.57 253.03 324.52 253.03L324.52 253.03Q321.46 253.03 319.36 251.51L319.36 251.51Q318.24 250.73 317.60 249.23Q316.97 247.73 316.97 245.63L316.97 245.63L316.97 233.59L315.24 233.59L315.24 232.44L323.02 232.44L323.02 233.59L321.29 233.59L321.29 246.55Q321.29 248.80 322.50 250.01Q323.71 251.22 325.48 251.22Q327.25 251.22 328.59 249.99Q329.93 248.77 329.93 246.55L329.93 246.55L329.93 233.59ZM345.71 237.77L345.71 237.77Q346.58 237.77 346.58 239.41L346.58 239.41L346.58 249.40Q346.58 250.18 346.95 250.63Q347.33 251.07 348.10 251.07Q348.88 251.07 349.89 250.24L349.89 250.24L350.41 250.93Q348.10 253.03 345.80 253.03L345.80 253.03Q342.26 253.03 342.26 248.80L342.26 248.80L342.26 240.71Q340.90 241.25 338.97 241.45L338.97 241.45Q338.74 244.10 337.45 246.75L337.45 246.75L336.27 246.41Q337.07 244.36 337.13 241.54L337.13 241.54Q336.04 241.54 335.36 240.91Q334.68 240.27 334.68 239.34Q334.68 238.40 335.33 237.75Q335.98 237.11 336.91 237.11Q337.85 237.11 338.48 237.77Q339.12 238.43 339.12 239.47L339.12 239.47L339.66 239.47Q341.94 239.47 344.50 238.20L344.50 238.20Q345.34 237.77 345.71 237.77ZM357.35 232.32L357.35 232.32L357.35 240.04Q358.87 237.77 361.58 237.77L361.58 237.77Q364.89 237.77 366.62 239.91Q368.35 242.06 368.35 245.39Q368.35 248.71 366.49 250.87Q364.63 253.03 361.29 253.03L361.29 253.03Q358.73 253.03 357.35 250.99L357.35 250.99L357.35 252.60L353.03 252.60L353.03 231.95Q351.44 232.35 350.61 233.36L350.61 233.36L349.83 232.47Q350.67 231.60 351.95 231.09Q353.23 230.57 354.48 230.57Q355.74 230.57 356.54 231.07Q357.35 231.58 357.35 232.32ZM363.08 249.78Q363.89 248.16 363.89 245.40Q363.89 242.64 363.08 241.02Q362.27 239.41 360.62 239.41Q358.96 239.41 358.08 241.04Q357.20 242.66 357.20 245.40Q357.20 248.14 358.08 249.76Q358.96 251.39 360.62 251.39Q362.27 251.39 363.08 249.78ZM383.10 238.20L387.42 238.20L387.42 249.40Q387.42 250.18 387.79 250.63Q388.16 251.07 388.94 251.07Q389.72 251.07 390.73 250.24L390.73 250.24L391.25 250.93Q388.94 253.03 386.64 253.03L386.64 253.03Q383.90 253.03 383.27 250.47L383.27 250.47Q381.77 253.03 378.86 253.03L378.86 253.03Q375.55 253.03 373.82 250.89Q372.09 248.74 372.09 245.41Q372.09 242.09 373.95 239.93Q375.81 237.77 379.15 237.77L379.15 237.77Q381.71 237.77 383.10 239.81L383.10 239.81L383.10 238.20ZM377.36 241.02Q376.56 242.64 376.56 245.40Q376.56 248.16 377.36 249.78Q378.17 251.39 379.83 251.39Q381.48 251.39 382.36 249.76Q383.24 248.14 383.24 245.40Q383.24 242.66 382.36 241.04Q381.48 239.41 379.83 239.41Q378.17 239.41 377.36 241.02ZM394.24 238.20L394.24 238.20Q396.60 238.20 398.50 239.64L398.50 239.64Q399.60 238.60 400.75 238.19Q401.90 237.77 403.70 237.77Q405.50 237.77 406.64 238.91Q407.78 240.04 407.78 242.00L407.78 242.00L407.78 249.40Q407.78 250.18 408.15 250.63Q408.53 251.07 409.30 251.07Q410.08 251.07 411.09 250.24L411.09 250.24L411.61 250.93Q409.30 253.03 407.00 253.03L407.00 253.03Q403.46 253.03 403.46 248.80L403.46 248.80L403.46 241.40Q403.46 240.50 402.91 240.01Q402.36 239.52 401.40 239.52Q400.43 239.52 399.50 240.30Q398.56 241.08 398.56 242.32L398.56 242.32L398.56 252.60L394.24 252.60L394.24 239.35Q392.94 239.35 391.94 239.78L391.94 239.78L391.53 238.72Q392.77 238.20 394.24 238.20ZM423.90 238.20L428.22 238.20L428.22 249.40Q428.22 250.18 428.60 250.63Q428.97 251.07 429.75 251.07Q430.53 251.07 431.54 250.24L431.54 250.24L432.06 250.93Q429.75 253.03 427.45 253.03L427.45 253.03Q424.71 253.03 424.08 250.47L424.08 250.47Q422.58 253.03 419.67 253.03L419.67 253.03Q416.36 253.03 414.63 250.89Q412.90 248.74 412.90 245.41Q412.90 242.09 414.76 239.93Q416.62 237.77 419.96 237.77L419.96 237.77Q422.52 237.77 423.90 239.81L423.90 239.81L423.90 238.20ZM418.17 241.02Q417.37 242.64 417.37 245.40Q417.37 248.16 418.17 249.78Q418.98 251.39 420.64 251.39Q422.29 251.39 423.17 249.76Q424.05 248.14 424.05 245.40Q424.05 242.66 423.17 241.04Q422.29 239.41 420.64 239.41Q418.98 239.41 418.17 241.02Z" data-element="slogan" data-text-path="" data-text="Musica Urbana" data-font-family="Croissant One" fill="#ffffff" fill-opacity="1"></path></g></g></svg>